# Blender 4.2.1 LTS
# www.blender.org
mtllib cylin2.mtl
o Cylinder
v -3.572144 0.065665 -0.201702
v 1.427856 0.065666 -0.201702
v -3.572144 -0.012408 -0.182458
v 1.427856 -0.012408 -0.182458
v -3.572144 -0.072596 -0.129136
v 1.427856 -0.072596 -0.129136
v -3.572144 -0.101110 -0.053952
v 1.427856 -0.101109 -0.053952
v -3.572144 -0.091417 0.025872
v 1.427856 -0.091417 0.025872
v -3.572144 -0.045739 0.092048
v 1.427856 -0.045739 0.092048
v -3.572144 0.025460 0.129417
v 1.427856 0.025461 0.129417
v -3.572144 0.105870 0.129417
v 1.427856 0.105871 0.129417
v -3.572144 0.177070 0.092048
v 1.427856 0.177070 0.092048
v -3.572144 0.222748 0.025872
v 1.427856 0.222748 0.025872
v -3.572144 0.232440 -0.053952
v 1.427856 0.232441 -0.053952
v -3.572144 0.203927 -0.129136
v 1.427856 0.203927 -0.129136
v -3.572144 0.143739 -0.182458
v 1.427856 0.143739 -0.182458
vn -0.0000 -0.2393 -0.9709
vn -0.0000 -0.6631 -0.7485
vn -0.0000 -0.9350 -0.3546
vn -0.0000 -0.9927 0.1205
vn -0.0000 -0.8230 0.5681
vn -0.0000 -0.4647 0.8855
vn -0.0000 -0.0000 1.0000
vn -0.0000 0.4647 0.8855
vn -0.0000 0.8230 0.5681
vn -0.0000 0.9927 0.1205
vn -0.0000 0.9350 -0.3546
vn 1.0000 -0.0000 -0.0000
vn -0.0000 0.6631 -0.7485
vn -0.0000 0.2393 -0.9709
vn -1.0000 -0.0000 -0.0000
vt 1.000000 0.500000
vt 1.000000 1.000000
vt 0.923077 1.000000
vt 0.923077 0.500000
vt 0.846154 1.000000
vt 0.846154 0.500000
vt 0.769231 1.000000
vt 0.769231 0.500000
vt 0.692308 1.000000
vt 0.692308 0.500000
vt 0.615385 1.000000
vt 0.615385 0.500000
vt 0.538462 1.000000
vt 0.538462 0.500000
vt 0.461538 1.000000
vt 0.461538 0.500000
vt 0.384615 1.000000
vt 0.384615 0.500000
vt 0.307692 1.000000
vt 0.307692 0.500000
vt 0.230769 1.000000
vt 0.230769 0.500000
vt 0.153846 1.000000
vt 0.153846 0.500000
vt 0.361534 0.462509
vt 0.250000 0.490000
vt 0.138466 0.462509
vt 0.052484 0.386336
vt 0.011750 0.278929
vt 0.025596 0.164895
vt 0.090851 0.070357
vt 0.192564 0.016974
vt 0.307436 0.016974
vt 0.409149 0.070357
vt 0.474404 0.164895
vt 0.488250 0.278929
vt 0.447516 0.386336
vt 0.076923 1.000000
vt 0.076923 0.500000
vt 0.000000 1.000000
vt 0.000000 0.500000
vt 0.750000 0.490000
vt 0.861534 0.462509
vt 0.947516 0.386336
vt 0.988250 0.278929
vt 0.974404 0.164895
vt 0.909149 0.070357
vt 0.807436 0.016974
vt 0.692564 0.016974
vt 0.590851 0.070357
vt 0.525596 0.164895
vt 0.511750 0.278929
vt 0.552484 0.386336
vt 0.638466 0.462509
s 0
f 1/1/1 2/2/1 4/3/1 3/4/1
f 3/4/2 4/3/2 6/5/2 5/6/2
f 5/6/3 6/5/3 8/7/3 7/8/3
f 7/8/4 8/7/4 10/9/4 9/10/4
f 9/10/5 10/9/5 12/11/5 11/12/5
f 11/12/6 12/11/6 14/13/6 13/14/6
f 13/14/7 14/13/7 16/15/7 15/16/7
f 15/16/8 16/15/8 18/17/8 17/18/8
f 17/18/9 18/17/9 20/19/9 19/20/9
f 19/20/10 20/19/10 22/21/10 21/22/10
f 21/22/11 22/21/11 24/23/11 23/24/11
f 4/25/12 2/26/12 26/27/12 24/28/12 22/29/12 20/30/12 18/31/12 16/32/12 14/33/12 12/34/12 10/35/12 8/36/12 6/37/12
f 23/24/13 24/23/13 26/38/13 25/39/13
f 25/39/14 26/38/14 2/40/14 1/41/14
f 1/42/15 3/43/15 5/44/15 7/45/15 9/46/15 11/47/15 13/48/15 15/49/15 17/50/15 19/51/15 21/52/15 23/53/15 25/54/15
